<svg xmlns="http://www.w3.org/2000/svg" viewBox="0 0 500 258"><path d="M289.5 133.1v-.2c0-7.1-5.1-13.4-12.7-13.4-7.8 0-12.5 6-12.5 13.2v.2c0 7.1 5.1 13.4 12.7 13.4 7.8 0 12.5-6.1 12.5-13.2zm-38.8 0v-.2c0-13.9 11.2-25.2 26.2-25.2s26 11.1 26 25v.2c0 13.9-11.2 25.2-26.2 25.2-14.9 0-26-11.1-26-25zm73.9 10.2V122c0-1-.7-1.6-1.6-1.6h-3.3s-.8 0-.8-.8v-10.2c0-.4.1-.8.8-.8h3.3c.8 0 1.6-.5 1.6-1.6v-9.9c0-.5.2-.8.8-.8h12.1c.3 0 .9.2.9.9v9.8c0 1 .4 1.6 1.6 1.6h8.9c.4 0 .8.1.8.8v10.1c0 .5 0 .8-.8.8H340c-1 0-1.6.6-1.6 1.6v19c0 3.2 1.6 4.9 4.4 4.7 2.6-.2 3.8-.3 5.6-1.2 0 0 1.1-.2 1.1.9v8.7c0 .6-.3 1-.8 1.3-2.8 1.4-5.7 2.4-10 2.4-8.4.1-14.1-3.2-14.1-14.4zm-134.9-34.7h12c.3 0 .8.3.8.8v2.6c0 1.5 1.5 1.7 2 1.1 3.1-3.5 7.7-5.4 12.2-5.4 10.4 0 16.4 6.9 16.4 18v30.5c0 .2-.2.8-.8.8h-12c-.3 0-.8-.3-.8-.8V130c0-6.5-3.1-9.8-8.3-9.8-5.2 0-8.6 3.3-8.6 9.8v26.1c0 .3-.3.8-.8.8h-12c-.3 0-.8-.3-.8-.8v-46.6c-.1-.4.1-.9.7-.9zm211.1 18.8c-1.2-4.7-4.1-8.7-9.9-8.7-7.3 0-9.6 6.7-10.1 8.6-.2.7.3 1.7 1.3 1.7h17.3c1.5 0 1.4-1.6 1.4-1.6zm-33.8 5.7v-.2c0-13.8 9.8-25.2 23.9-25.2 16.1 0 23.5 12.5 23.5 26.3 0 .7 0 1.4-.1 2.2 0 .5-.4 1.4-1.5 1.4h-30.4c-1.3 0-1.5 1.3-1.2 1.9 1.8 5 5.8 7.5 11.3 7.5 4.2 0 7.3-1.2 10.8-4.2.7-.6 1.5-.4 1.9.1 0 0 5.2 4.6 5.9 5.2.7.6.6 1.4.1 1.8-4.5 4.9-10.5 8-18.9 8-14.6.2-25.3-10-25.3-24.8zM96.3 157h51.4V96.3h-37.1c-.3 0-.7.2-.9.5-4.4 4.7-8.7 9.5-13 14.2-.2.2-.4.7-.4 1.2V157zm56.5-71c2.9 0 5.2 2.3 5.2 5.1v71c0 2.8-2.3 5.1-5.1 5.1H91.2c-2.9.1-5.2-2.2-5.2-5.1v-52c0-2 .6-3.7 2-5.2l15.5-16.8c1.3-1.4 2.9-2.1 4.8-2.1h44.5zm-46.2 35.8c-2.3 0-4.1-1.8-4.1-4.1s1.8-4.1 4.1-4.1h7v-7c0-2.3 1.8-4.1 4.1-4.1s4.1 1.8 4.1 4.1v11.1c0 2.3-1.8 4.1-4.1 4.1h-11.1z" fill="#fff"/></svg>