<svg xmlns="http://www.w3.org/2000/svg" width="800.36" height="800"><path d="M261.04 725.92c283.02 0 437.82-234.48 437.82-437.82 0-6.66 0-13.29-.45-19.89a312.903 312.903 0 0 0 76.77-79.65 307.436 307.436 0 0 1-88.38 24.21 154.445 154.445 0 0 0 67.65-85.11 308.384 308.384 0 0 1-97.71 37.35c-58.28-61.97-155.75-64.96-217.72-6.68-39.96 37.58-56.92 93.58-44.52 147.02-123.72-6.2-239-64.64-317.13-160.77-40.84 70.31-19.98 160.26 47.64 205.41a152.76 152.76 0 0 1-69.84-19.26v1.95c.02 73.25 51.65 136.34 123.45 150.84a153.62 153.62 0 0 1-69.48 2.64c20.16 62.68 77.93 105.62 143.76 106.86a308.785 308.785 0 0 1-191.1 66c-12.24-.02-24.47-.76-36.63-2.22a435.637 435.637 0 0 0 235.86 69"/></svg>